<svg xmlns="http://www.w3.org/2000/svg" viewBox="0 0 841.9 595.3">
    <g fill="#34D399">
        <path d="M420.9 297c-72.9 0-132 59.1-132 132s59.1 132 132 132 132-59.1 132-132-59.1-132-132-132zm0 224c-50.8 0-92-41.2-92-92s41.2-92 92-92 92 41.2 92 92-41.2 92-92 92z"/>
        <path d="M317 219.1c-17.8-30.9-53.3-47.1-90.2-39.8-46.2 9.1-76.8 52.2-67.8 98.4 9.1 46.2 52.2 76.8 98.4 67.8 23.5-4.7 43.8-19.4 57-39.5 1.4-2.2 2.7-4.6 4-6.9 17.8 30.9 53.3 47.1 90.2 39.8 46.2-9.1 76.8-52.2 67.8-98.4-9.1-46.2-52.2-76.8-98.4-67.8-23.5 4.7-43.8 19.4-57 39.5-1.4 2.2-2.7 4.6-4 6.9z"/>
        <circle cx="420.9" cy="297" r="45.7" fill="#3B82F6"/>
        <path d="M514.9 219.1c17.8-30.9 53.3-47.1 90.2-39.8 46.2 9.1 76.8 52.2 67.8 98.4-9.1 46.2-52.2 76.8-98.4 67.8-23.5-4.7-43.8-19.4-57-39.5-1.4-2.2-2.7-4.6-4-6.9-17.8 30.9-53.3 47.1-90.2 39.8-46.2-9.1-76.8-52.2-67.8-98.4 9.1-46.2 52.2-76.8 98.4-67.8 23.5 4.7 43.8 19.4 57 39.5 1.4 2.2 2.7 4.6 4 6.9z"/>
    </g>
</svg>
